<mxfile host="app.diagrams.net" agent="Mozilla/5.0 (X11; Linux x86_64; rv:133.0) Gecko/20100101 Firefox/133.0" version="25.0.0">
  <diagram name="Page-1" id="vwHNE1rIm08CPXAHGpGa">
    <mxGraphModel dx="1069" dy="711" grid="1" gridSize="10" guides="1" tooltips="1" connect="1" arrows="1" fold="1" page="1" pageScale="1" pageWidth="850" pageHeight="1100" math="0" shadow="0">
      <root>
        <mxCell id="0" />
        <mxCell id="1" parent="0" />
        <mxCell id="w49XpSVRSfYb0BnBdLCO-2" value="&lt;div&gt;User&lt;/div&gt;&lt;div&gt;&lt;br&gt;&lt;/div&gt;" style="shape=umlActor;verticalLabelPosition=bottom;verticalAlign=top;html=1;outlineConnect=0;" parent="1" vertex="1">
          <mxGeometry x="320" y="307.5" width="30" height="60" as="geometry" />
        </mxCell>
        <mxCell id="w49XpSVRSfYb0BnBdLCO-7" value="Search for Documents" style="ellipse;whiteSpace=wrap;html=1;" parent="1" vertex="1">
          <mxGeometry x="460" y="112.5" width="90" height="70" as="geometry" />
        </mxCell>
        <mxCell id="w49XpSVRSfYb0BnBdLCO-8" value="&lt;div&gt;Add Documents to the Index&lt;/div&gt;" style="ellipse;whiteSpace=wrap;html=1;" parent="1" vertex="1">
          <mxGeometry x="460" y="207.5" width="90" height="70" as="geometry" />
        </mxCell>
        <mxCell id="w49XpSVRSfYb0BnBdLCO-9" value="&lt;div&gt;Delete Document from the Index&lt;/div&gt;" style="ellipse;whiteSpace=wrap;html=1;" parent="1" vertex="1">
          <mxGeometry x="460" y="297.5" width="90" height="70" as="geometry" />
        </mxCell>
        <mxCell id="w49XpSVRSfYb0BnBdLCO-11" value="" style="endArrow=classic;html=1;rounded=0;entryX=0;entryY=0.5;entryDx=0;entryDy=0;" parent="1" source="w49XpSVRSfYb0BnBdLCO-2" target="w49XpSVRSfYb0BnBdLCO-7" edge="1">
          <mxGeometry width="50" height="50" relative="1" as="geometry">
            <mxPoint x="350" y="110" as="sourcePoint" />
            <mxPoint x="480" y="200" as="targetPoint" />
          </mxGeometry>
        </mxCell>
        <mxCell id="w49XpSVRSfYb0BnBdLCO-12" value="" style="endArrow=classic;html=1;rounded=0;entryX=0;entryY=0.5;entryDx=0;entryDy=0;" parent="1" source="w49XpSVRSfYb0BnBdLCO-2" target="w49XpSVRSfYb0BnBdLCO-8" edge="1">
          <mxGeometry width="50" height="50" relative="1" as="geometry">
            <mxPoint x="430" y="250" as="sourcePoint" />
            <mxPoint x="480" y="200" as="targetPoint" />
          </mxGeometry>
        </mxCell>
        <mxCell id="w49XpSVRSfYb0BnBdLCO-13" value="" style="endArrow=classic;html=1;rounded=0;" parent="1" source="w49XpSVRSfYb0BnBdLCO-2" target="w49XpSVRSfYb0BnBdLCO-9" edge="1">
          <mxGeometry width="50" height="50" relative="1" as="geometry">
            <mxPoint x="430" y="250" as="sourcePoint" />
            <mxPoint x="480" y="200" as="targetPoint" />
          </mxGeometry>
        </mxCell>
        <mxCell id="L_7Cl5XolsXpORrl-7ja-1" value="&lt;div&gt;Download Document&lt;br&gt;&lt;/div&gt;" style="ellipse;whiteSpace=wrap;html=1;" vertex="1" parent="1">
          <mxGeometry x="460" y="390" width="90" height="70" as="geometry" />
        </mxCell>
        <mxCell id="L_7Cl5XolsXpORrl-7ja-2" value="Get Status" style="ellipse;whiteSpace=wrap;html=1;" vertex="1" parent="1">
          <mxGeometry x="460" y="480" width="90" height="70" as="geometry" />
        </mxCell>
        <mxCell id="L_7Cl5XolsXpORrl-7ja-3" value="" style="endArrow=classic;html=1;rounded=0;entryX=-0.022;entryY=0.371;entryDx=0;entryDy=0;exitX=1;exitY=1;exitDx=0;exitDy=0;exitPerimeter=0;entryPerimeter=0;" edge="1" parent="1" source="w49XpSVRSfYb0BnBdLCO-2" target="L_7Cl5XolsXpORrl-7ja-1">
          <mxGeometry width="50" height="50" relative="1" as="geometry">
            <mxPoint x="360" y="336" as="sourcePoint" />
            <mxPoint x="470" y="253" as="targetPoint" />
          </mxGeometry>
        </mxCell>
        <mxCell id="L_7Cl5XolsXpORrl-7ja-4" value="" style="endArrow=classic;html=1;rounded=0;entryX=0.022;entryY=0.357;entryDx=0;entryDy=0;entryPerimeter=0;" edge="1" parent="1" target="L_7Cl5XolsXpORrl-7ja-2">
          <mxGeometry width="50" height="50" relative="1" as="geometry">
            <mxPoint x="350" y="380" as="sourcePoint" />
            <mxPoint x="448" y="438" as="targetPoint" />
          </mxGeometry>
        </mxCell>
      </root>
    </mxGraphModel>
  </diagram>
</mxfile>
